Coordinates
version=1
nRows=34
nColumns=34
inDegrees=no

Units are S.I. units (second, meters, Newtons, ...)
If the header above contains a line with 'inDegrees', this indicates whether rotational values are in degrees (yes) or radians (no).

endheader
time	pelvis_tilt	pelvis_list	pelvis_rotation	pelvis_tx	pelvis_ty	pelvis_tz	hip_flexion_r	hip_adduction_r	hip_rotation_r	knee_angle_r	ankle_angle_r	subtalar_angle_r	mtp_angle_r	hip_flexion_l	hip_adduction_l	hip_rotation_l	knee_angle_l	ankle_angle_l	subtalar_angle_l	mtp_angle_l	lumbar_extension	lumbar_bending	lumbar_rotation	arm_flex_r	arm_add_r	arm_rot_r	elbow_flex_r	pro_sup_r	arm_flex_l	arm_add_l	arm_rot_l	elbow_flex_l	pro_sup_l
0	-0.280788	0.107874	-0.110583	-5.84693	0.966161	0.18265	-0.441548	-0.146054	-0.164589	0.113216	-0.561853	0.210654	-0.647304	1.58544	-0.0831971	-0.107934	1.82916	-0.111445	-0.465866	-0.00787036	0.0818472	-0.195413	0.252529	0.879293	-0.286806	0.0637	1.78825	1.5708	-1.4073	-0.333187	-0.24271	0.954577	1.5708
0.004	-0.2729	0.129147	-0.122776	-5.80712	0.966744	0.181093	-0.481805	-0.17925	-0.1621	0.100607	-0.621579	0.190041	-0.0319696	1.5802	-0.0839153	-0.123502	1.76661	-0.0963315	-0.452249	0.603161	0.0873131	-0.21498	0.274559	0.90603	-0.298657	0.0607462	1.82534	1.5708	-1.43927	-0.309323	-0.30455	0.935127	1.5708
0.008	-0.276161	0.125828	-0.10645	-5.76963	0.966954	0.180332	-0.502554	-0.173222	-0.182964	0.113199	-0.62121	0.127071	-0.404257	1.5836	-0.0664039	-0.115861	1.68166	-0.077704	-0.402084	-0.0409401	0.090098	-0.214114	0.259509	0.934132	-0.29987	0.0588306	1.85835	1.5708	-1.47455	-0.28212	-0.36051	0.976907	1.5708
0.012	-0.266012	0.134765	-0.115788	-5.7312	0.968096	0.179934	-0.524419	-0.191712	-0.171971	0.149089	-0.630002	0.0810088	-0.0102417	1.56527	-0.0693991	-0.119942	1.606	-0.0598215	-0.373598	-0.0135569	0.0831323	-0.222798	0.265132	0.959191	-0.300192	0.0597804	1.89162	1.5708	-1.48329	-0.252833	-0.412214	0.95823	1.5708
0.016	-0.274509	0.116369	-0.106287	-5.69535	0.968167	0.181318	-0.521688	-0.168135	-0.148217	0.202367	-0.612619	-0.0266038	-0.430275	1.56166	-0.0655326	-0.0953243	1.52352	-0.0453271	-0.346137	0.00674926	0.0846239	-0.2072	0.251032	0.979275	-0.297716	0.0570614	1.92697	1.5708	-1.501	-0.225893	-0.452396	0.99096	1.5708
0.02	-0.268053	0.107428	-0.10252	-5.65799	0.969092	0.181804	-0.530441	-0.159203	-0.131334	0.263268	-0.591028	-0.092086	-0.393846	1.53769	-0.0664028	-0.0872332	1.44249	-0.0207185	-0.304539	-0.0400016	0.0722172	-0.201962	0.240621	0.991853	-0.298968	0.055054	1.96513	1.5708	-1.49418	-0.204128	-0.484677	0.957918	1.5708
0.024	-0.263676	0.11807	-0.0844827	-5.62089	0.970905	0.179427	-0.531319	-0.169125	-0.153871	0.343103	-0.535651	-0.118214	-0.281919	1.50804	-0.0400039	-0.0935261	1.34599	-0.00799142	-0.280699	-0.0681856	0.0607478	-0.216394	0.220519	0.993387	-0.301907	0.0502938	2.0053	1.5708	-1.48138	-0.188494	-0.515859	0.940281	1.5708
0.028	-0.26275	0.12243	-0.0654096	-5.5844	0.972597	0.177688	-0.526525	-0.171126	-0.168588	0.42451	-0.501044	-0.145994	-0.220656	1.47821	-0.0139163	-0.0906955	1.24722	0.000753487	-0.248747	-0.108428	0.0497627	-0.225309	0.197448	0.988052	-0.304195	0.0456066	2.04527	1.5708	-1.46422	-0.175491	-0.541122	0.923039	1.5708
0.032	-0.24664	0.118303	-0.0608278	-5.54906	0.975673	0.175814	-0.528734	-0.174094	-0.166524	0.511689	-0.491362	-0.162402	-0.170931	1.43086	-0.00248367	-0.0815793	1.14989	0.00795123	-0.20529	-0.175383	0.0616763	-0.237519	0.350547	0.851347	-0.475586	-0.110029	2.1565	1.5708	-1.49599	-0.284129	-0.621371	1.13548	1.5708
0.036	-0.249631	0.124762	-0.0305267	-5.51001	0.976815	0.174796	-0.527327	-0.175728	-0.203693	0.586766	-0.464304	-0.148204	-0.0913814	1.39908	0.0293518	-0.082561	1.05725	0.0150547	-0.164765	-0.209723	0.0177177	-0.237282	0.157643	0.948642	-0.314953	0.0305514	2.12317	1.5708	-1.43632	-0.162151	-0.56209	0.932281	1.5708
0.04	-0.248659	0.123401	-0.0258592	-5.47382	0.978635	0.174441	-0.50407	-0.181007	-0.190166	0.706579	-0.419633	-0.136669	-1.0472	1.3629	0.0354921	-0.0794601	0.966416	0.0139359	-0.124686	-0.238947	0.00820742	-0.239072	0.148175	0.919987	-0.318246	0.0257782	2.15681	1.5708	-1.41464	-0.157697	-0.561241	0.933219	1.5708
0.044	-0.233325	0.119026	-0.00736205	-5.43625	0.980922	0.173142	-0.530038	-0.168473	-0.208986	0.701403	-0.640606	-0.166253	-0.19857	1.31275	0.0568138	-0.0699736	0.887051	0.00806389	-0.072227	-1.0472	-0.0188672	-0.238026	0.12185	0.886589	-0.322279	0.0225358	2.18466	1.5708	-1.39628	-0.154544	-0.554588	0.94431	1.5708
0.048	-0.227408	0.103475	-0.0146278	-5.39969	0.982831	0.173909	-0.49456	-0.166061	-0.175504	0.852994	-0.523816	-0.158562	-0.194236	1.27342	0.0419389	-0.0539873	0.840453	0.0779443	-0.00958384	-1.0472	-0.0306551	-0.221845	0.124754	0.847308	-0.327441	0.0214076	2.20967	1.5708	-1.36933	-0.154359	-0.540764	0.95329	1.5708
0.052	-0.233405	0.104099	-0.0115332	-5.36444	0.981756	0.176123	-0.519983	-0.158927	-0.194461	0.870217	-0.487107	-0.209625	-0.480967	1.25183	0.0385895	-0.0740153	0.753755	0.00342924	-0.0142763	-0.355947	-0.0315849	-0.229404	0.115589	0.806353	-0.321811	0.0197821	2.22517	1.5708	-1.359	-0.157556	-0.529653	0.983062	1.5708
0.056	-0.223873	0.0760839	-0.01298	-5.32786	0.985758	0.175624	-0.441605	-0.136319	-0.126878	1.04659	-0.524317	-0.160226	-0.206308	1.21788	0.0237142	-0.0763912	0.740682	0.0340759	-0.0602238	-0.162252	-0.0505433	-0.195369	0.114515	0.755165	-0.327316	0.020665	2.23916	1.5708	-1.3148	-0.163152	-0.501915	0.985865	1.5708
0.06	-0.212284	0.0638681	-0.0130744	-5.29141	0.987686	0.177081	-0.42531	-0.12322	-0.110486	1.13938	-0.528233	-0.160521	-0.226335	1.16652	0.0111764	-0.0740348	0.648915	-0.0133027	0.0476868	-0.397594	-0.0701556	-0.182714	0.107692	0.708636	-0.321379	0.0249585	2.23999	1.5708	-1.28565	-0.171413	-0.475671	1.00499	1.5708
0.064	-0.203234	0.0515673	-0.0125373	-5.25496	0.989014	0.177922	-0.404864	-0.110432	-0.0950504	1.23372	-0.514014	-0.151295	-0.256164	1.13022	0.00117838	-0.0879131	0.615078	-0.0179857	0.0555662	-0.402325	-0.0879739	-0.169682	0.103943	0.655796	-0.320436	0.025241	2.23888	1.5708	-1.25402	-0.182461	-0.44824	1.02744	1.5708
0.068	-0.195742	0.0437929	-0.00886808	-5.21831	0.990158	0.178151	-0.387577	-0.101343	-0.090216	1.32154	-0.485398	-0.159708	-0.243336	1.09557	-0.00305464	-0.102532	0.587283	-0.0254054	0.057917	-0.41969	-0.104594	-0.16184	0.0993266	0.598445	-0.317839	0.0219669	2.23301	1.5708	-1.22217	-0.19786	-0.419421	1.05404	1.5708
0.072	-0.180378	0.0382098	-0.00505026	-5.18185	0.991469	0.178618	-0.376429	-0.0944913	-0.0865847	1.40902	-0.465003	-0.165136	-0.258397	1.05545	-0.00616064	-0.118848	0.572076	-0.0289484	0.0545765	-0.398994	-0.128279	-0.152911	0.0871045	0.551779	-0.307931	0.0256384	2.20688	1.5708	-1.18681	-0.211718	-0.384988	1.07303	1.5708
0.076	-0.167986	0.0367645	-0.000451189	-5.14517	0.992553	0.178679	-0.361459	-0.0927619	-0.0850788	1.49595	-0.440095	-0.170045	-0.271951	1.01954	-0.0051906	-0.13628	0.5659	-0.0354898	0.0392745	-0.407199	-0.150012	-0.149772	0.0760367	0.501222	-0.299576	0.0271933	2.17843	1.5708	-1.14609	-0.219724	-0.365815	1.09128	1.5708
0.08	-0.153809	0.0340688	0.00395559	-5.10835	0.993847	0.178711	-0.349307	-0.0895141	-0.086172	1.57289	-0.44853	-0.200726	-0.336267	0.982592	-0.00524018	-0.150042	0.567251	-0.0399124	0.0277142	-0.385618	-0.172681	-0.145192	0.0700451	0.444949	-0.291226	0.0231273	2.14418	1.5708	-1.10643	-0.237013	-0.337409	1.11651	1.5708
0.084	-0.150411	0.0392855	0.00174031	-5.07245	0.9939	0.178573	-0.319525	-0.0975847	-0.0756258	1.66563	-0.402002	-0.189167	-0.29073	0.956998	-0.00522486	-0.17372	0.572655	-0.0495479	0.010376	-0.380548	-0.183822	-0.148514	0.0656939	0.394785	-0.280917	0.0202458	2.09899	1.5708	-1.06118	-0.249935	-0.311422	1.13149	1.5708
0.088	-0.138433	0.038478	0.00928316	-5.03576	0.994768	0.178338	-0.302242	-0.0986229	-0.0819516	1.74126	-0.402148	-0.210218	-0.204299	0.923164	-0.00305563	-0.187935	0.584908	-0.0538069	0.007669	-0.363387	-0.204306	-0.144566	0.0527397	0.346301	-0.267467	0.0143442	2.04544	1.5708	-1.01498	-0.264202	-0.286048	1.14771	1.5708
0.092	-0.132926	0.0405988	0.0107023	-4.99961	0.994895	0.178307	-0.2737	-0.104026	-0.0780527	1.82126	-0.383298	-0.213142	-0.277397	0.895957	-0.00423495	-0.20668	0.600598	-0.0583572	0.0105524	-0.358435	-0.216808	-0.144707	0.0461121	0.29883	-0.254603	0.00637929	1.9853	1.5708	-0.966584	-0.27822	-0.261455	1.16329	1.5708
0.096	-0.127956	0.0432262	0.0132899	-4.96343	0.994913	0.178295	-0.242291	-0.110267	-0.0747664	1.9023	-0.370233	-0.222069	-0.245556	0.867875	-0.00447811	-0.223638	0.617052	-0.0635187	0.0182203	-0.363539	-0.228654	-0.145313	0.0377364	0.255488	-0.239174	-0.00300593	1.91666	1.5708	-0.915487	-0.29236	-0.237092	1.17602	1.5708
0.1	-0.121588	0.0462916	0.0154967	-4.92703	0.994744	0.178222	-0.212056	-0.117186	-0.0702038	1.97851	-0.358962	-0.237293	-0.161196	0.837746	-0.00412233	-0.235766	0.635417	-0.0661494	0.0332156	-0.373262	-0.240752	-0.146358	0.0294276	0.215308	-0.224	-0.0145222	1.84185	1.5708	-0.863193	-0.306474	-0.21228	1.18808	1.5708
0.104	-0.118392	0.0502498	0.0186844	-4.89064	0.994193	0.177637	-0.177249	-0.126965	-0.0661927	2.05074	-0.356076	-0.258158	-0.179812	0.809802	-0.000248772	-0.242296	0.652276	-0.0675139	0.0385191	-0.398973	-0.248579	-0.147415	0.0198541	0.17862	-0.21014	-0.0253196	1.76054	1.5708	-0.807607	-0.319659	-0.18579	1.19636	1.5708
0.108	-0.121105	0.0584253	0.0260144	-4.85471	0.992929	0.175707	-0.134462	-0.145602	-0.0635582	2.12435	-0.344799	-0.268926	-0.18186	0.788704	0.0155038	-0.238889	0.671616	-0.0530161	0.0334343	-0.335061	-0.250108	-0.150527	0.00517204	0.146506	-0.198346	-0.0369675	1.6738	1.5708	-0.749641	-0.331548	-0.156123	1.20122	1.5708
0.112	-0.123977	0.0603712	0.0390984	-4.81935	0.991426	0.174147	-0.0899016	-0.154731	-0.0630138	2.19385	-0.332338	-0.27309	-0.164671	0.768919	0.0285565	-0.228715	0.698218	0.00552597	0.046041	-0.191401	-0.252947	-0.147052	-0.0150563	0.122147	-0.18572	-0.0494651	1.57936	1.5708	-0.68943	-0.34379	-0.12708	1.20755	1.5708
0.116	-0.130124	0.0567527	0.0558651	-4.78349	0.989232	0.172725	-0.0414957	-0.15715	-0.0650281	2.25902	-0.316651	-0.277502	-0.161062	0.753899	0.0381591	-0.222468	0.739037	0.0920751	0.0508152	-0.0665032	-0.249268	-0.137606	-0.0377768	0.0998228	-0.172912	-0.061616	1.47988	1.5708	-0.629785	-0.353477	-0.100413	1.21227	1.5708
0.12	-0.135083	0.0497291	0.0709737	-4.74775	0.987039	0.172138	0.00949419	-0.154586	-0.0648799	2.32106	-0.300063	-0.278597	-0.161594	0.735166	0.0435481	-0.215844	0.784012	0.180647	0.0424556	-0.0477098	-0.246325	-0.125808	-0.0597476	0.0831245	-0.159815	-0.0749001	1.3786	1.5708	-0.567174	-0.363839	-0.0740937	1.21417	1.5708
0.124	-0.139359	0.0434912	0.0839009	-4.71283	0.985023	0.172535	0.0649859	-0.152557	-0.0631853	2.38093	-0.285458	-0.281984	-0.15851	0.720352	0.0454254	-0.208591	0.830365	0.254496	0.0242914	0.0865561	-0.245409	-0.117547	-0.0790746	0.0709206	-0.1464	-0.0864314	1.27299	1.5708	-0.501801	-0.370996	-0.0577313	1.21883	1.5708
0.128	-0.144351	0.0343951	0.102801	-4.67749	0.982839	0.172685	0.121779	-0.148504	-0.0688913	2.43473	-0.273089	-0.287078	-0.180233	0.709913	0.0470996	-0.193102	0.875829	0.299754	-0.00328572	0.0785442	-0.242236	-0.105019	-0.105296	0.0604587	-0.135248	-0.0927412	1.16393	1.5708	-0.435905	-0.379992	-0.0368662	1.22145	1.5708
0.132	-0.145423	0.0287521	0.123882	-4.64199	0.981303	0.172655	0.174777	-0.150852	-0.0778464	2.48006	-0.266463	-0.292401	-0.192332	0.694026	0.050653	-0.173912	0.918467	0.333262	-0.0242065	0.092442	-0.244093	-0.0952225	-0.133703	0.0508032	-0.124045	-0.104481	1.06155	1.5708	-0.366284	-0.388676	-0.0153456	1.22229	1.5708
